# xmcd
#
# Track frame offsets:
#	150
#	20085
#	41990
#	54872
#	73207
#	86767
#	104302
#	122222
#	140500
#	159422
#	179100
#	202225
#	220192
#	237455
#	256760
#	272000
#	295790
#
# Disc length: 4080 seconds
#
# Revision: 4
# Processed by: cddbd v1.5.2PL0 Copyright (c) Steve Scherf et al.
# Submitted via: audiograbber 1.83.01
#
DISCID=0e0fee11
DTITLE=Chris Ardoin And Double Clutchin' - Turn The Page
DYEAR=1998
DGENRE=Zydeco
TTITLE0=Your Love Keeps Lifting Me (Higher And Higher)
TTITLE1=Talk Talk
TTITLE2=Acting The Devil
TTITLE3=Turn The Page
TTITLE4=Give It Up
TTITLE5=Stay In Or Stay Out - Pass The Dutchie
TTITLE6=Tiffany Two Step
TTITLE7=I Got My Name
TTITLE8=Friends Ain't Forever
TTITLE9=Feel The Pain
TTITLE10=Before The Deal Was Done
TTITLE11=My Baby Done Gone
TTITLE12=Barres De La Prison
TTITLE13=Early One Morning
TTITLE14=Double Clutchin' Old Style
TTITLE15=Fever For Your Flavor
TTITLE16=Outro
EXTD=
EXTT0=
EXTT1=
EXTT2=
EXTT3=
EXTT4=
EXTT5=
EXTT6=
EXTT7=
EXTT8=
EXTT9=
EXTT10=
EXTT11=
EXTT12=
EXTT13=
EXTT14=
EXTT15=
EXTT16=
PLAYORDER=
